<svg width="487" height="70" viewBox="0 0 487 70" fill="none" xmlns="http://www.w3.org/2000/svg"><path d="M28.89 67.35H0V60.85H4.53C5.94 60.85 6.95 60.55 7.56 59.94C8.17 59.33 8.47 58.32 8.47 56.91V31.68C8.47 30.24 8.17 29.22 7.58 28.62C6.99 28.03 5.97 27.73 4.52 27.73H0V21.23H20.12V56.9C20.12 58.31 20.43 59.32 21.06 59.93C21.69 60.54 22.69 60.84 24.07 60.84H28.88V67.34L28.89 67.35ZM5.92 7.90001C5.92 5.91001 6.62 4.23001 8.01 2.87001C9.41 1.51001 11.08 0.820007 13.04 0.820007C15 0.820007 16.63 1.50001 18.02 2.87001C19.42 4.23001 20.11 5.91001 20.11 7.90001C20.11 9.89001 19.4 11.53 17.97 12.93C16.54 14.33 14.9 15.02 13.04 15.02C11.18 15.02 9.49 14.32 8.06 12.93C6.63 11.53 5.92 9.86001 5.92 7.90001Z" fill="currentColor"></path><path d="M54.81 67.35H25.83V60.85H30.64C32.05 60.85 33.06 60.55 33.67 59.94C34.28 59.33 34.58 58.32 34.58 56.91V12.42C34.58 9.78997 33.26 8.46997 30.63 8.46997H25.82V1.96997H46.23V56.9C46.23 58.31 46.54 59.32 47.17 59.93C47.8 60.54 48.8 60.84 50.18 60.84H54.8V67.34L54.81 67.35Z" fill="currentColor"></path><path d="M132.99 7.40999L135.45 1.96999H142.77V27.34H135.16C133.62 21.72 131.25 17.17 128.06 13.69C124.87 10.21 120.36 8.46999 114.56 8.46999C111.03 8.46999 107.97 9.60999 105.39 11.89C102.81 14.17 100.83 17.29 99.47 21.25C98.11 25.21 97.42 29.67 97.42 34.61C97.42 42.67 98.92 49.05 101.92 53.77C104.92 58.49 109.7 60.85 116.24 60.85C119.42 60.85 122.11 60.33 124.3 59.29C126.5 58.25 128.14 56.77 129.21 54.86C130.29 52.95 130.82 50.74 130.82 48.24V44.48C130.82 42.91 130.31 41.73 129.28 40.94C128.25 40.15 127.02 39.76 125.57 39.76H119.26V32.44H154.89V39.76H149.83C147.71 39.76 146.32 40.08 145.64 40.72C144.97 41.36 144.63 42.68 144.63 44.67V67.35H137.51L133.85 62.34C131.99 63.91 129.94 65.2 127.71 66.22C125.48 67.23 123.14 68 120.71 68.53C118.27 69.06 115.82 69.32 113.34 69.32C108.69 69.32 104.41 68.5 100.51 66.86C96.61 65.22 93.28 62.9 90.52 59.88C87.76 56.86 85.63 53.2 84.14 48.88C82.65 44.56 81.9 39.81 81.9 34.61C81.9 29.41 82.63 25.08 84.09 20.84C85.55 16.6 87.66 12.92 90.42 9.78999C93.18 6.65999 96.5 4.24999 100.39 2.53999C104.27 0.83999 108.59-0.0100098 113.34-0.0100098C120.43-0.0100098 126.98 2.45999 132.98 7.39999L132.99 7.40999Z" fill="currentColor"></path><path d="M186.54 67.35H157.65V60.85H162.18C163.59 60.85 164.6 60.55 165.21 59.94C165.82 59.33 166.12 58.32 166.12 56.91V31.68C166.12 30.24 165.82 29.22 165.23 28.62C164.64 28.03 163.62 27.73 162.17 27.73H157.64V21.23H177.76V56.9C177.76 58.31 178.07 59.32 178.7 59.93C179.33 60.54 180.33 60.84 181.71 60.84H186.52V67.34L186.54 67.35ZM163.58 7.90001C163.58 5.91001 164.28 4.23001 165.67 2.87001C167.07 1.51001 168.74 0.820007 170.7 0.820007C172.66 0.820007 174.29 1.50001 175.68 2.87001C177.08 4.23001 177.77 5.91001 177.77 7.90001C177.77 9.89001 177.06 11.53 175.63 12.93C174.2 14.33 172.56 15.02 170.7 15.02C168.84 15.02 167.14 14.32 165.72 12.93C164.3 11.54 163.58 9.86001 163.58 7.90001Z" fill="currentColor"></path><path d="M188.87 44.29C188.87 39.16 189.94 34.74 192.07 31.05C194.2 27.36 197.19 24.55 201.02 22.62C204.85 20.69 209.24 19.73 214.19 19.73C219.14 19.73 223.57 20.69 227.41 22.62C231.24 24.55 234.23 27.35 236.36 31.05C238.49 34.74 239.56 39.15 239.56 44.29C239.56 49.43 238.48 53.8 236.33 57.51C234.18 61.22 231.2 64.03 227.4 65.96C223.6 67.89 219.19 68.85 214.18 68.85C209.17 68.85 204.82 67.89 201.01 65.96C197.21 64.03 194.23 61.22 192.08 57.51C189.93 53.8 188.85 49.4 188.85 44.29H188.87ZM202.06 44.29C202.06 50.2 203.08 54.68 205.11 57.75C207.14 60.82 210.16 62.35 214.17 62.35C216.8 62.35 219.02 61.67 220.82 60.3C222.63 58.94 223.99 56.91 224.9 54.23C225.81 51.55 226.27 48.24 226.27 44.29C226.27 38.32 225.25 33.82 223.22 30.79C221.19 27.76 218.17 26.24 214.16 26.24C210.15 26.24 207.14 27.77 205.1 30.84C203.07 33.91 202.05 38.39 202.05 44.3L202.06 44.29Z" fill="currentColor"></path><path d="M264.48 21.23V28.69H264.67C266.76 25.54 268.71 23.27 270.54 21.85C272.37 20.44 274.52 19.73 276.99 19.73C280.36 19.73 283.19 20.67 285.49 22.55C287.78 24.43 288.93 27.1 288.93 30.57C288.93 32.88 288.27 34.84 286.96 36.44C285.64 38.05 283.8 38.85 281.42 38.85C279.43 38.85 277.77 38.29 276.44 37.16C275.11 36.04 274.44 34.5 274.44 32.54C274.44 30.78 275.06 29.36 276.29 28.3C277.52 27.24 279.07 26.68 280.94 26.61C280.11 25.71 278.73 25.26 276.8 25.26C274.2 25.26 271.99 26 270.16 27.47C268.33 28.95 266.94 30.85 266 33.17C265.05 35.5 264.58 37.91 264.58 40.42V56.88C264.58 58.29 264.89 59.3 265.52 59.91C266.15 60.52 267.15 60.82 268.53 60.82H274.74V67.32H243.54V60.82H248.98C250.36 60.82 251.36 60.52 251.99 59.91C252.61 59.3 252.93 58.29 252.93 56.88V31.65C252.93 30.21 252.62 29.19 252.02 28.59C251.41 28 250.4 27.7 248.99 27.7H243.55V21.2H264.49L264.48 21.23Z" fill="currentColor"></path><path d="M313.57 21.23V29.8H313.76C318.19 23.09 323.92 19.74 330.95 19.74C335.38 19.74 338.81 21.06 341.25 23.71C343.69 26.36 344.91 30.33 344.91 35.63V56.91C344.91 58.39 345.32 59.41 346.14 59.99C346.96 60.57 348.52 60.86 350.83 60.86H354.39V67.36H325.55V60.86H327.91C329.93 60.86 331.33 60.56 332.1 59.97C332.87 59.38 333.26 58.36 333.26 56.91V36.4C333.26 32.93 332.49 30.57 330.95 29.32C329.41 28.07 327.3 27.44 324.61 27.44C322.08 27.44 319.61 28.59 317.19 30.88C314.77 33.17 313.56 35.8 313.56 38.75V56.9C313.56 58.31 313.87 59.32 314.5 59.93C315.13 60.54 316.13 60.84 317.51 60.84H321.36V67.34H292.33V60.84H297.96C299.34 60.84 300.34 60.54 300.97 59.93C301.59 59.32 301.91 58.31 301.91 56.9V33.02C301.91 30.87 301.5 29.45 300.68 28.76C299.86 28.07 298.15 27.72 295.55 27.72H292.32V21.22H313.55L313.57 21.23Z" fill="currentColor"></path><path d="M403.66 50.21H409.97V53.15C409.97 58.57 408.91 62.55 406.79 65.07C404.67 67.59 401.47 68.85 397.19 68.85C394.58 68.85 392.36 68.25 390.53 67.04C388.7 65.83 387.6 64 387.25 61.53C385.55 64.1 383.29 65.96 380.48 67.11C377.67 68.27 374.53 68.84 371.07 68.84C366.99 68.84 363.69 67.81 361.15 65.74C358.61 63.67 357.35 60.54 357.35 56.34C357.35 52.14 358.63 49 361.2 47.11C363.77 45.22 367.57 43.65 372.61 42.4C377.65 41.15 381.3 39.96 383.56 38.84C385.82 37.72 386.95 35.63 386.95 32.59C386.95 29.7 385.98 27.73 384.04 26.68C382.1 25.62 379.55 25.09 376.38 25.09C374.75 25.09 373.03 25.35 371.22 25.87C369.41 26.39 368.09 27.21 367.26 28.31C371.59 28.31 373.76 30.01 373.76 33.41C373.76 37.29 371.46 39.24 366.88 39.24C364.79 39.24 363.08 38.54 361.75 37.15C360.42 35.75 359.75 34.03 359.75 31.97C359.75 28.89 360.79 26.43 362.85 24.6C364.92 22.77 367.46 21.5 370.48 20.8C373.5 20.09 376.53 19.74 379.58 19.74C383.82 19.74 387.37 20.34 390.24 21.55C393.11 22.75 395.22 24.42 396.57 26.56C397.92 28.69 398.59 31.19 398.59 34.05V58.22C398.59 60.37 399.38 61.45 400.95 61.45C402.75 61.45 403.65 58.95 403.65 53.94V50.23L403.66 50.21ZM386.96 49.39V42.99L376.5 47.71C374.64 48.54 373.2 49.5 372.18 50.57C371.16 51.65 370.64 53.19 370.64 55.22C370.64 59.36 372.59 61.43 376.5 61.43C378.64 61.43 380.51 60.88 382.09 59.79C383.67 58.7 384.88 57.21 385.71 55.34C386.54 53.47 386.96 51.48 386.96 49.39Z" fill="currentColor"></path><path d="M440.07 67.35H411.09V60.85H415.9C417.31 60.85 418.32 60.55 418.93 59.94C419.54 59.33 419.84 58.32 419.84 56.91V12.42C419.84 9.78997 418.52 8.46997 415.89 8.46997H411.08V1.96997H431.49V56.9C431.49 58.31 431.8 59.32 432.43 59.93C433.06 60.54 434.06 60.84 435.44 60.84H440.06V67.34L440.07 67.35Z" fill="currentColor"></path><path d="M486.63 45.45H455.1C455.1 50.26 455.96 54.13 457.68 57.05C459.4 59.97 462.28 61.43 466.33 61.43C469.8 61.43 472.5 60.56 474.43 58.81C476.36 57.06 477.64 54.45 478.29 50.99H486.44C485.99 54.84 484.93 58.08 483.26 60.69C481.59 63.31 479.24 65.32 476.22 66.73C473.2 68.14 469.52 68.85 465.18 68.85C457.53 68.85 451.72 66.76 447.76 62.57C443.8 58.38 441.81 52.29 441.81 44.3C441.81 39.52 442.77 35.27 444.7 31.57C446.63 27.87 449.33 24.97 452.82 22.88C456.31 20.79 460.27 19.75 464.7 19.75C468.33 19.75 471.55 20.43 474.36 21.8C477.17 23.16 479.47 24.95 481.25 27.17C483.03 29.38 484.39 31.9 485.32 34.73C486.25 37.55 486.72 40.35 486.72 43.11C486.72 44.17 486.69 44.96 486.62 45.47L486.63 45.45ZM455.09 38.95H473.43C473.43 35.29 472.75 32.32 471.4 30.04C470.05 27.76 467.76 26.62 464.55 26.62C461.34 26.62 459.15 27.78 457.62 30.11C456.09 32.44 455.25 35.38 455.09 38.94V38.95Z" fill="currentColor"></path></svg>