<svg xmlns="http://www.w3.org/2000/svg" height="106.548" width="400" version="1.1" viewBox="0 0 160 42.619116">
<title>"Sport" (FC Barcelona Fanzine)</title>
<g fill="#fff" transform="matrix(0.32486217,0,0,0.32486217,-3.030964,-5.936684)">
<path d="m39.94,30.9c11.45-6.79,24.86-9.97,38.12-9.92,15.05,0.74,30.55,3.48,43.54,11.52-4.46,11.3-8.8,22.65-13.22,33.97-8.56-6.16-19.1-9.02-29.48-10.03-4.94-0.08-10.22,0.7-14.27,3.74,0.71,0.97,1.24,2.26,2.58,2.48,10.88,3.34,22.64,2.75,33.35,6.78,8.91,3.13,17.36,9.08,21.37,17.88,4.64,10.23,4.21,22.6-1.04,32.52-5.72,10.89-16.58,18.07-27.88,22.2-13.67,5.11-28.62,5.48-42.94,3.47-12.76-1.8-25.52-4.78-37.14-10.51,4.99-12.48,9.97-24.98,14.99-37.45,9.66,8.39,22.29,13.06,35,13.79,4.65-0.41,9.77-0.81,13.59-3.78,1.44-1.58-0.54-3.57-2.1-4.03-10.66-3.42-22.28-2.06-32.85-5.91-7.82-2.69-15.2-7.5-19.59-14.65-5.29-8.66-5.5-19.72-2.14-29.12,3.51-9.85,11.25-17.68,20.11-22.95m13.71-2.17c-11.12,3.92-21.74,10.77-27.79,21.14-4.89,8.74-6.25,19.96-1.65,29.1,3.49,7.25,10.52,12.17,17.97,14.74,9.53,3.67,19.96,2.93,29.81,5.17,3.13,0.68,6.76,1.65,8.41,4.68,1.64,2.88-0.07,6.55-2.83,8-4.69,2.61-10.18,3.49-15.49,3.57-11.58-0.81-23-4.67-32.55-11.3-3.85,9.78-7.86,19.5-11.66,29.3,7.07,3.08,14.51,5.23,22.05,6.79,16.22,3.33,33.48,4.78,49.41-0.7,12.8-4.06,25.48-12.52,30.11-25.68,3.28-10.01,2.23-22.01-4.63-30.33-4.09-4.91-9.88-8.07-15.82-10.2-10.89-4.14-22.96-3.21-33.9-7.09-3.22-0.98-5.48-5.06-3.13-7.97,3.32-4.11,9.15-4.78,14.08-5.21,10.6-0.14,21.12,2.96,30.45,7.88,3.49-8.81,6.82-17.67,10.33-26.47-7.04-3.92-14.88-6.12-22.74-7.64-13.38-2.42-27.51-2.39-40.43,2.22z"/>
<path d="m215.58,31.91c14.86-9.26,33.11-12.51,50.36-10.13,16.56,2.13,32.67,9.95,43.41,22.91,17.87,21.38,18.49,55.13,1.57,77.22-10.31,13.45-26.51,21.45-43.08,23.87-16.06,2.17-33,0.5-47.6-6.88-11.78-5.7-21.48-15.42-27.27-27.14,1.33-0.19,2.66-0.4,3.99-0.6,6.44,12.46,17.78,22.04,30.88,26.9,17.32,6.48,37.01,6.5,54.34,0.09,13.11-4.9,24.7-14.37,30.98-27,7.75-15.65,8.17-34.72,1.33-50.77-6.57-15.46-20.64-27.07-36.56-31.99-19.46-6.1-41.78-4.42-59.37,6.24-1-0.91-1.99-1.82-2.98-2.72z"/>
<path d="m120.83,22.84c19.37,0.01,38.75-0.04,58.13,0.02,13.44,0.37,27.78,3.81,37.44,13.75,8.34,8.12,11.72,20.03,11.79,31.4-0.01,10.17-2.76,20.75-9.63,28.49-7.1,8.15-17.95,12.24-28.57,12.66-7.88,0.04-15.76-0.03-23.63,0.02,0,11.94,0.01,23.88-0.01,35.81-15.17,0.01-30.34,0.01-45.52,0,0.09-6.34-0.16-12.7,0.1-19.04,0.97-2.85,3.07-5.22,3.81-8.19-0.32,7.74-0.06,15.49-0.14,23.23,12.68,0.01,25.37,0.02,38.05,0-0.02-11.79,0-23.57-0.01-35.36,11.13-0.27,22.36,0.81,33.4-1.02,9.11-1.63,17.84-6.71,22.66-14.77,6.06-10.06,6.79-22.6,4.15-33.85-2.33-10.01-9.2-18.84-18.41-23.43-9.01-4.78-19.39-5.81-29.42-5.98-16.81,0.04-33.61-0.02-50.42,0.03,0.12,20.17-0.2,40.36,0.14,60.54-0.93-3.57-4.46-6.2-3.93-10.12,0.06-11.02-0.02-22.03,0.04-33.05-0.19-4.54,3.94-8.3,3.16-12.81-0.96-0.94-2.04-1.74-3.14-2.51-0.03-1.94-0.04-3.88-0.04-5.82z"/>
<path d="m309,22.84c17.02-0.01,34.03,0,51.04-0.01,10.73-0.08,21.75,0.93,31.67,5.3,7.78,3.3,14.64,9,18.66,16.5,4.76,8.61,5.44,18.8,4.53,28.42-0.83,6.73-3.82,13.39-9.13,17.76-3.59,3.03-7.92,4.96-12.21,6.75,2.32,2.03,4.53,4.23,6.19,6.85,9.15,13.53,18.32,27.06,27.47,40.59-18.34,0-36.68-0.01-55.01,0-5.59-11.13-10.96-22.37-16.81-33.36-0.1,11.12-0.01,22.24-0.05,33.36-15.45,0-30.9-0.01-46.35,0,0.08-5.35-0.18-10.71,0.09-16.05,0.66-2.05,2.65-3.36,3.93-5.05-0.03,5.7-0.02,11.4-0.02,17.1,12.88-0.01,25.77,0.02,38.65-0.01-0.01-12.67-0.02-25.34,0-38.01,1.3,0.02,2.61,0.05,3.92,0.08,6.25,12.71,12.78,25.29,19.1,37.97,15.07-0.07,30.13-0.01,45.19-0.03-8.09-11.85-16.08-23.78-24.17-35.63-1.82-2.83-4.63-4.75-7.24-6.78-0.04-1.12-0.08-2.25-0.11-3.37,6.4-2.29,13.24-4.75,17.74-10.13,4.55-5.57,5.37-13.09,5.36-20.03-0.03-10.3-3.76-21-11.89-27.69-10.1-8.49-23.81-10.39-36.57-10.77-16.65-0.02-33.31,0-49.97,0-0.03,6.05,0.03,12.1-0.06,18.15-1.29-1.6-2.6-3.18-3.93-4.73-0.05-5.73-0.02-11.46-0.02-17.18z"/>
<path d="m403.84,22.84c31.77-0.01,63.55,0,95.33-0.01-0.01,14.12-0.01,28.24,0,42.36-8.01-0.16-15.99-0.99-24-1.06-0.02,26.95,0.01,53.91-0.01,80.87-14.83,0.01-29.65-0.03-44.48,0.02-1.17-1.85-3.02-3.59-2.84-5.96-0.03-24.98,0.02-49.96-0.02-74.93-3.26,0.09-6.51,0.22-9.77,0.34-0.06-0.92-0.17-2.76-0.23-3.67,4.59-0.25,9.21-0.22,13.78-0.83v81.03c13.27,0,26.54,0.01,39.8-0.01,0-27.01,0.01-54.01,0-81.02,7.97,0.84,16,0.86,24.01,1.05-0.02-11.47,0.02-22.94-0.02-34.41-29.26-0.03-58.52-0.03-87.78,0-0.03,3.16-0.04,6.33,0.08,9.49-1.25-1.38-2.65-2.62-3.76-4.11-0.25-3.04-0.07-6.1-0.09-9.15z"/>
<path d="m162.64,54.99c5.86,0.17,11.99-0.16,17.6,1.77,8.69,3.11,8.36,17.27,0.17,20.79-5.55,2.65-11.85,1.6-17.77,1.81,0.01-8.12,0-16.25,0-24.37m3.7,4.01c0.03,5.62,0,11.24,0.03,16.87,4.22-0.21,8.69,0.06,12.59-1.87,4.2-2.26,5.14-8.61,2.1-12.16-4.05-3.47-9.78-2.65-14.72-2.84z"/>
<path d="m351.64,54.97c4.93,0.15,10.05-0.02,14.79,1.55,7.37,2.79,8.42,13.89,3.18,19.1-4.92,4.23-11.95,3.29-17.97,3.58-0.01-8.08,0.01-16.15,0-24.23m3.71,4c0.01,5.5-0.01,11.01,0.03,16.51,3.86-0.47,8.18-0.08,11.47-2.52,2.62-2.38,2.32-6.43,1.53-9.54-2.29-4.91-8.53-4.28-13.03-4.45z"/>
<path d="m69.28,60.43c9.6-2.54,19.64-0.18,28.63,3.44,3.67,1.4,7.01,3.5,10.2,5.77-12.01-6.41-25.88-6.14-38.83-9.21z"/>
<path d="m251.21,60.13c7.5-1.16,15.7,1.08,21.09,6.57,9.14,9.24,9.54,25.72,0.82,35.36-9.86,10.63-29.62,9.8-37.9-2.36-6.19-9.04-5.87-21.98,0.71-30.73,3.59-4.89,9.33-7.93,15.28-8.84m-2.76,4.55c-15.65,4.46-18.65,28.44-5.48,37.36,8.04,5.53,19.98,4.71,26.97-2.19,7.8-8.38,7.48-23.02-0.89-30.89-5.34-5.18-13.64-6.45-20.6-4.28z"/>
<path d="m169.42,61.75c3.27,0.16,7.04-0.11,9.71,2.14,1.4,1.99,1.09,4.91-0.35,6.78-2.56,2.2-6.21,2.02-9.36,2.45-0.02-3.79-0.02-7.58,0-11.37z"/>
<path d="m358.42,61.67c2.59,0.48,6.77,0.06,7.54,3.38,0.33,1.93,0.59,4.37-1.04,5.82-1.86,1.41-4.31,1.32-6.5,1.66-0.02-3.62-0.02-7.24,0-10.86z"/>
</g>
<g fill="#e00025" transform="matrix(0.32486217,0,0,0.32486217,-3.030964,-5.936684)">
<path d="m33.62,31.7c13.31-9.64,30.07-14.01,46.4-13.35,13.05,0.61,26.16,3.2,37.99,8.87-0.01-2.35-0.01-4.71,0-7.06,20.32,0,40.63-0.01,60.95,0,11.98,0.14,24.29,2.9,34.19,9.91,15.24-9.76,33.97-13.32,51.84-11.21,15.26,1.76,30.39,7.9,41.43,18.79-0.13-5.83-0.05-11.66-0.05-17.49,19.54,0,39.07-0.01,58.61,0,12.63,0.18,25.68,2.73,36.21,10.05-0.04-3.35-0.04-6.7-0.01-10.05,33.55,0,67.1-0.02,100.65,0.01,0.02,15.95,0.02,31.89,0.01,47.84-8.01-0.22-16.01-0.59-24-1.07,0,26.9,0.01,53.8,0,80.7-35.81,0.07-71.6,0.01-107.41,0.01-4-8.17-8.26-16.21-12.09-24.45,0.14,8.14,0.04,16.29,0.06,24.44-17.35,0.02-34.69,0.02-52.04,0,0.02-5.6-0.09-11.19,0.08-16.78-11.71,11.13-27.72,17-43.66,18.27-19.26,1.65-39.66-2.7-55.05-14.82-7.67-5.84-13.66-13.67-17.78-22.35-6.85,0.09-13.7,0.02-20.55,0.04,0.01,11.88,0.01,23.75,0,35.63-17.13,0.04-34.26,0-51.39,0.02-0.02-6.2,0-12.41-0.02-18.61-11.65,12.89-29.15,18.96-46.12,20.24-12.34,0.67-24.72-0.96-36.75-3.66-8.94-2.01-17.65-5.07-25.79-9.29,5.78-14.42,11.55-28.84,17.32-43.27,5.04,3.86,9.91,8.15,15.91,10.51,9.69,4.1,21.08,7.08,31.19,2.66-10.29-3.27-21.44-2.12-31.69-5.56-10.58-3.17-20.64-10.27-24.8-20.82-2.63-5.96-2.54-12.63-2.05-19,1.49-11.83,8.89-22.26,18.41-29.15m6.32-0.8c-8.86,5.27-16.6,13.1-20.11,22.95-3.36,9.4-3.15,20.46,2.14,29.12,4.39,7.15,11.77,11.96,19.59,14.65,10.57,3.85,22.19,2.49,32.85,5.91,1.56,0.46,3.54,2.45,2.1,4.03-3.82,2.97-8.94,3.37-13.59,3.78-12.71-0.73-25.34-5.4-35-13.79-5.02,12.47-10,24.97-14.99,37.45,11.62,5.73,24.38,8.71,37.14,10.51,14.32,2.01,29.27,1.64,42.94-3.47,11.3-4.13,22.16-11.31,27.88-22.2,5.25-9.92,5.68-22.29,1.04-32.52-4.01-8.8-12.46-14.75-21.37-17.88-10.71-4.03-22.47-3.44-33.35-6.78-1.34-0.22-1.87-1.51-2.58-2.48,4.05-3.04,9.33-3.82,14.27-3.74,10.38,1.01,20.92,3.87,29.48,10.03,4.42-11.32,8.76-22.67,13.22-33.97-12.99-8.04-28.49-10.78-43.54-11.52-13.26-0.05-26.67,3.13-38.12,9.92m175.64,1.01c0.99,0.9,1.98,1.81,2.98,2.72,17.59-10.66,39.91-12.34,59.37-6.24,15.92,4.92,29.99,16.53,36.56,31.99,6.84,16.05,6.42,35.12-1.33,50.77-6.28,12.63-17.87,22.1-30.98,27-17.33,6.41-37.02,6.39-54.34-0.09-13.1-4.86-24.44-14.44-30.88-26.9-1.33,0.2-2.66,0.41-3.99,0.6,5.79,11.72,15.49,21.44,27.27,27.14,14.6,7.38,31.54,9.05,47.6,6.88,16.57-2.42,32.77-10.42,43.08-23.87,16.92-22.09,16.3-55.84-1.57-77.22-10.74-12.96-26.85-20.78-43.41-22.91-17.25-2.38-35.5,0.87-50.36,10.13m-94.75-9.07c0,1.94,0.01,3.88,0.04,5.82,1.1,0.77,2.18,1.57,3.14,2.51,0.78,4.51-3.35,8.27-3.16,12.81-0.06,11.02,0.02,22.03-0.04,33.05-0.53,3.92,3,6.55,3.93,10.12-0.34-20.18-0.02-40.37-0.14-60.54,16.81-0.05,33.61,0.01,50.42-0.03,10.03,0.17,20.41,1.2,29.42,5.98,9.21,4.59,16.08,13.42,18.41,23.43,2.64,11.25,1.91,23.79-4.15,33.85-4.82,8.06-13.55,13.14-22.66,14.77-11.04,1.83-22.27,0.75-33.4,1.02,0.01,11.79-0.01,23.57,0.01,35.36-12.68,0.02-25.37,0.01-38.05,0,0.08-7.74-0.18-15.49,0.14-23.23-0.74,2.97-2.84,5.34-3.81,8.19-0.26,6.34-0.01,12.7-0.1,19.04,15.18,0.01,30.35,0.01,45.52,0,0.02-11.93,0.01-23.87,0.01-35.81,7.87-0.05,15.75,0.02,23.63-0.02,10.62-0.42,21.47-4.51,28.57-12.66,6.87-7.74,9.62-18.32,9.63-28.49-0.07-11.37-3.45-23.28-11.79-31.4-9.66-9.94-24-13.38-37.44-13.75-19.38-0.06-38.76-0.01-58.13-0.02m188.17,0c0,5.72-0.03,11.45,0.02,17.18,1.33,1.55,2.64,3.13,3.93,4.73,0.09-6.05,0.03-12.1,0.06-18.15,16.66,0,33.32-0.02,49.97,0,12.76,0.38,26.47,2.28,36.57,10.77,8.13,6.69,11.86,17.39,11.89,27.69,0.01,6.94-0.81,14.46-5.36,20.03-4.5,5.38-11.34,7.84-17.74,10.13,0.03,1.12,0.07,2.25,0.11,3.37,2.61,2.03,5.42,3.95,7.24,6.78,8.09,11.85,16.08,23.78,24.17,35.63-15.06,0.02-30.12-0.04-45.19,0.03-6.32-12.68-12.85-25.26-19.1-37.97-1.31-0.03-2.62-0.06-3.92-0.08-0.02,12.67-0.01,25.34,0,38.01-12.88,0.03-25.77,0-38.65,0.01,0-5.7-0.01-11.4,0.02-17.1-1.28,1.69-3.27,3-3.93,5.05-0.27,5.34-0.01,10.7-0.09,16.05,15.45-0.01,30.9,0,46.35,0,0.04-11.12-0.05-22.24,0.05-33.36,5.85,10.99,11.22,22.23,16.81,33.36,18.33-0.01,36.67,0,55.01,0-9.15-13.53-18.32-27.06-27.47-40.59-1.66-2.62-3.87-4.82-6.19-6.85,4.29-1.79,8.62-3.72,12.21-6.75,5.31-4.37,8.3-11.03,9.13-17.76,0.91-9.62,0.23-19.81-4.53-28.42-4.02-7.5-10.88-13.2-18.66-16.5-9.92-4.37-20.94-5.38-31.67-5.3-17.01,0.01-34.02,0-51.04,0.01m94.84,0c0.02,3.05-0.16,6.11,0.09,9.15,1.11,1.49,2.51,2.73,3.76,4.11-0.12-3.16-0.11-6.33-0.08-9.49,29.26-0.03,58.52-0.03,87.78,0,0.04,11.47,0,22.94,0.02,34.41-8.01-0.19-16.04-0.21-24.01-1.05,0.01,27.01,0,54.01,0,81.02-13.26,0.02-26.53,0.01-39.8,0.01v-81.03c-4.57,0.61-9.19,0.58-13.78,0.83,0.06,0.91,0.17,2.75,0.23,3.67,3.26-0.12,6.51-0.25,9.77-0.34,0.04,24.97-0.01,49.95,0.02,74.93-0.18,2.37,1.67,4.11,2.84,5.96,14.83-0.05,29.65-0.01,44.48-0.02,0.02-26.96-0.01-53.92,0.01-80.87,8.01,0.07,15.99,0.9,24,1.06-0.01-14.12-0.01-28.24,0-42.36-31.78,0.01-63.56,0-95.33,0.01m-286,26.72c-2.58,7.07-5.23,14.12-8.16,21.06,3.04,1.71,5.85,3.82,8.34,6.27-0.12-9.11,0.17-18.23-0.18-27.33m44.8,5.43c0,8.12,0.01,16.25,0,24.37,5.92-0.21,12.22,0.84,17.77-1.81,8.19-3.52,8.52-17.68-0.17-20.79-5.61-1.93-11.74-1.6-17.6-1.77m189-0.02c0.01,8.08-0.01,16.15,0,24.23,6.02-0.29,13.05,0.65,17.97-3.58,5.24-5.21,4.19-16.31-3.18-19.1-4.74-1.57-9.86-1.4-14.79-1.55m-282.36,5.46c12.95,3.07,26.82,2.8,38.83,9.21-3.19-2.27-6.53-4.37-10.2-5.77-8.99-3.62-19.03-5.98-28.63-3.44m181.93-0.3c-5.95,0.91-11.69,3.95-15.28,8.84-6.58,8.75-6.9,21.69-0.71,30.73,8.28,12.16,28.04,12.99,37.9,2.36,8.72-9.64,8.32-26.12-0.82-35.36-5.39-5.49-13.59-7.73-21.09-6.57m166.83,7.3c-0.11,6.55-1.26,13.29-4.71,18.95-3.39,5.53-8.86,9.41-14.7,12.01,1.36,1.63,2.68,3.3,3.89,5.05,7.53,11.22,15.14,22.37,22.69,33.57-0.11-23.35-0.02-46.71-0.05-70.07-2.38,0.03-4.76,0.19-7.12,0.49z"/>
<path d="m53.65,28.73c12.92-4.61,27.05-4.64,40.43-2.22,7.86,1.52,15.7,3.72,22.74,7.64-3.51,8.8-6.84,17.66-10.33,26.47-9.33-4.92-19.85-8.02-30.45-7.88-4.93,0.43-10.76,1.1-14.08,5.21-2.35,2.91-0.09,6.99,3.13,7.97,10.94,3.88,23.01,2.95,33.9,7.09,5.94,2.13,11.73,5.29,15.82,10.2,6.86,8.32,7.91,20.32,4.63,30.33-4.63,13.16-17.31,21.62-30.11,25.68-15.93,5.48-33.19,4.03-49.41,0.7-7.54-1.56-14.98-3.71-22.05-6.79,3.8-9.8,7.81-19.52,11.66-29.3,9.55,6.63,20.97,10.49,32.55,11.3,5.31-0.08,10.8-0.96,15.49-3.57,2.76-1.45,4.47-5.12,2.83-8-1.65-3.03-5.28-4-8.41-4.68-9.85-2.24-20.28-1.5-29.81-5.17-7.45-2.57-14.48-7.49-17.97-14.74-4.6-9.14-3.24-20.36,1.65-29.1,6.05-10.37,16.67-17.22,27.79-21.14z"/>
<path d="m166.34,59c4.94,0.19,10.67-0.63,14.72,2.84,3.04,3.55,2.1,9.9-2.1,12.16-3.9,1.93-8.37,1.66-12.59,1.87-0.03-5.63,0-11.25-0.03-16.87m3.08,2.75c-0.02,3.79-0.02,7.58,0,11.37,3.15-0.43,6.8-0.25,9.36-2.45,1.44-1.87,1.75-4.79,0.35-6.78-2.67-2.25-6.44-1.98-9.71-2.14z"/>
<path d="m355.35,58.97c4.5,0.17,10.74-0.46,13.03,4.45,0.79,3.11,1.09,7.16-1.53,9.54-3.29,2.44-7.61,2.05-11.47,2.52-0.04-5.5-0.02-11.01-0.03-16.51m3.07,2.7c-0.02,3.62-0.02,7.24,0,10.86,2.19-0.34,4.64-0.25,6.5-1.66,1.63-1.45,1.37-3.89,1.04-5.82-0.77-3.32-4.95-2.9-7.54-3.38z"/>
<path d="m248.45,64.68c6.96-2.17,15.26-0.9,20.6,4.28,8.37,7.87,8.69,22.51,0.89,30.89-6.99,6.9-18.93,7.72-26.97,2.19-13.17-8.92-10.17-32.9,5.48-37.36m1.83,2.41c-13.12,2.88-16.74,21.43-8.08,30.63,7.11,7.36,20.87,6.87,27.06-1.45,4.93-7.14,4.56-17.75-1.18-24.34-4.32-4.96-11.61-6.39-17.8-4.84z"/>
</g>
</svg>
