<svg width="281" height="34" xmlns="http://www.w3.org/2000/svg" viewBox="0 0 281 34">
            <path
              d="M30.274 32.517V19.588h-4.469c0 5.115-.913 8.761-6.68 8.761h-5.237V7.182c0-1.185.673-1.894 1.874-1.894h2.98V1.12H0v4.167h2.98c1.201 0 1.873.71 1.873 1.894v19.273c0 1.184-.672 1.894-1.874 1.894H.048v4.167h30.226zm15.24-31.34l-8.097 23.677c-.97 2.89-1.648 3.552-3.345 3.552h-1.65v4.167h14.255v-4.167H45.27c-1.309 0-3.005-.142-3.005-.9 0-.662.194-1.373.727-3.03l.582-1.895h9.89l1.019 3.41c.194.71.242 1.231.242 1.705 0 .521-1.212.71-2.666.71h-1.455v4.167h17.699v-4.167h-1.648c-1.697 0-2.376-.663-3.346-3.552L55.212 1.177h-9.698zm2.81 7.289h.102l3.619 10.09h-7.289l3.569-10.09zm54.941-7.94h-3.96l-.86 2.249C95.726 1.052 92.625 0 89.38 0c-6.585 0-13.694 2.153-13.694 10.048 0 13.73 20.662 8.181 20.662 15.023 0 2.728-3.006 4.115-5.488 4.115-5.63 0-9.783-3.492-10.402-8.514h-4.438v12.535h4.008l1.24-2.535c3.006 2.2 6.73 2.966 10.403 2.966 6.585 0 13.168-2.584 13.168-10.239 0-13.637-20.66-8.804-20.66-14.831 0-3.207 2.576-4.115 5.344-4.115 4.199 0 8.637 2.823 9.352 7.846h4.39V.53l.001-.003zm7.65 12.62c0-4.83 1.419-7.859 6.856-7.859v21.168c0 1.184-.662 1.894-1.844 1.894h-2.932v4.167h18.348v-4.167h-2.837c-1.182 0-1.844-.71-1.844-1.895V5.288c5.438 0 6.856 3.03 6.856 7.863h4.397V1.121H106.52v12.03h4.397l-.002-.005zm34.951-11.969l-8.097 23.677c-.97 2.89-1.648 3.552-3.345 3.552h-1.649v4.167h14.255v-4.167h-1.407c-1.309 0-3.005-.142-3.005-.9 0-.662.194-1.373.727-3.03l.582-1.895h9.89l1.019 3.41c.194.71.242 1.231.242 1.705 0 .521-1.212.71-2.667.71h-1.454v4.167h17.699v-4.167h-1.648c-1.698 0-2.376-.663-3.346-3.552l-8.1-23.677h-9.695zm2.812 7.289h.1l3.62 10.09h-7.289l3.569-10.09zm21.754-7.344v4.167h2.894c1.206 0 1.882.71 1.882 1.894v19.271c0 1.185-.676 1.895-1.882 1.895h-2.894v4.166h13.943V28.35h-2.026c-1.206 0-1.881-.71-1.881-1.895V6h.096l7.525 26.516h7.043l7.573-26.043h.097v19.98c0 1.185-.675 1.895-1.882 1.895h-2.025v4.166h17.509v-4.166h-2.653c-1.206 0-1.882-.71-1.882-1.894V7.182c0-1.184.675-1.894 1.882-1.894h2.653V1.12H199.23l-5.692 19.273h-.097L187.897 1.12h-17.465zm52.39 25.389c0 1.184-.67 1.894-1.866 1.894h-2.917v4.168h18.84v-4.168h-3.203c-1.196 0-1.866-.71-1.866-1.894v-7.483h5.26c8.799 0 13.438-2.462 13.438-8.948 0-6.487-4.639-8.903-12.48-8.903H217.99v4.168h2.965c1.196 0 1.865.71 1.865 1.894v19.272zm9.185-21.408h4.789c2.63 0 4.742 1.85 4.742 4.789 0 2.94-2.207 4.74-5.493 4.74h-4.038v-9.53zm25.425-3.926l-8.097 23.677c-.97 2.89-1.648 3.552-3.345 3.552h-1.65v4.167h14.255v-4.167h-1.406c-1.309 0-3.005-.142-3.005-.9 0-.662.193-1.373.727-3.03l.582-1.895h9.89l1.019 3.41c.194.71.242 1.231.242 1.705 0 .521-1.213.71-2.667.71h-1.454v4.167h17.698v-4.167h-1.648c-1.697 0-2.376-.663-3.346-3.552l-8.096-23.677h-9.7zm2.811 7.289h.101l3.619 10.09h-7.288l3.568-10.09z"
              fill="#fff" fill-rule="nonzero" />
          </svg>